<svg width="43" height="43" viewBox="0 0 43 43" fill="none" xmlns="http://www.w3.org/2000/svg">
<path d="M42.9375 21.5C42.9375 33.3335 33.3442 42.9375 21.5 42.9375C9.65578 42.9375 0.0625 33.3335 0.0625 21.5C0.0625 9.65578 9.65578 0.0625 21.5 0.0625C33.3442 0.0625 42.9375 9.65578 42.9375 21.5Z" fill="#283544"/>
<path d="M31.5482 16.0754C31.4312 16.1436 28.6465 17.5838 28.6465 20.777C28.7777 24.4187 32.1607 25.6958 32.2188 25.6958C32.1607 25.7641 31.708 27.4356 30.367 29.1877C29.3027 30.697 28.1215 32.2188 26.3277 32.2188C24.6214 32.2188 24.0089 31.2128 22.0402 31.2128C19.9259 31.2128 19.3277 32.2188 17.7089 32.2188C15.9152 32.2188 14.6464 30.6155 13.5241 29.1204C12.0661 27.1635 10.8268 24.0926 10.7831 21.1439C10.7536 19.5815 11.0751 18.0455 11.8911 16.741C13.0429 14.9197 15.0991 13.6833 17.3447 13.6426C19.0652 13.5885 20.5964 14.7433 21.6464 14.7433C22.6527 14.7433 24.5339 13.6426 26.6625 13.6426C27.5812 13.6435 30.0312 13.9014 31.5482 16.0754ZM21.5009 13.3306C21.1947 11.9037 22.0402 10.4768 22.8277 9.56662C23.8339 8.46587 25.4232 7.71875 26.7937 7.71875C26.8812 9.14564 26.3268 10.5451 25.3357 11.5643C24.4464 12.665 22.9152 13.4937 21.5009 13.3306Z" fill="white"/>
</svg>
